<svg xmlns="http://www.w3.org/2000/svg" xmlns:xlink="http://www.w3.org/1999/xlink" width="500" zoomAndPan="magnify" viewBox="0 0 375 374.999991" height="500" preserveAspectRatio="xMidYMid meet" version="1.0"><defs><filter x="0%" y="0%" width="100%" height="100%" id="ed03105306"><feColorMatrix values="0 0 0 0 1 0 0 0 0 1 0 0 0 0 1 0 0 0 1 0" color-interpolation-filters="sRGB"/></filter><g/><clipPath id="e61b29712b"><path d="M 0 0 L 375 0 L 375 375 L 0 375 Z M 0 0 " clip-rule="nonzero"/></clipPath><linearGradient x1="74.300256" gradientTransform="matrix(1.567716, 0, 0, 1.566941, -116.481727, 19.829882)" y1="97" x2="313.501663" gradientUnits="userSpaceOnUse" y2="97" id="a5121c5e4c"><stop stop-opacity="1" stop-color="rgb(0%, 29.019165%, 67.83905%)" offset="0"/><stop stop-opacity="1" stop-color="rgb(0%, 29.019165%, 67.83905%)" offset="0.03125"/><stop stop-opacity="1" stop-color="rgb(0.062561%, 29.029846%, 67.855835%)" offset="0.0390625"/><stop stop-opacity="1" stop-color="rgb(0.45166%, 29.093933%, 67.965698%)" offset="0.0429688"/><stop stop-opacity="1" stop-color="rgb(0.778198%, 29.148865%, 68.057251%)" offset="0.046875"/><stop stop-opacity="1" stop-color="rgb(1.10321%, 29.203796%, 68.148804%)" offset="0.0507812"/><stop stop-opacity="1" stop-color="rgb(1.429749%, 29.258728%, 68.240356%)" offset="0.0546875"/><stop stop-opacity="1" stop-color="rgb(1.754761%, 29.312134%, 68.331909%)" offset="0.0585938"/><stop stop-opacity="1" stop-color="rgb(2.081299%, 29.367065%, 68.423462%)" offset="0.0625"/><stop stop-opacity="1" stop-color="rgb(2.406311%, 29.421997%, 68.515015%)" offset="0.0664062"/><stop stop-opacity="1" stop-color="rgb(2.732849%, 29.476929%, 68.606567%)" offset="0.0703125"/><stop stop-opacity="1" stop-color="rgb(3.057861%, 29.53186%, 68.69812%)" offset="0.0742188"/><stop stop-opacity="1" stop-color="rgb(3.384399%, 29.586792%, 68.789673%)" offset="0.078125"/><stop stop-opacity="1" stop-color="rgb(3.709412%, 29.640198%, 68.881226%)" offset="0.0820312"/><stop stop-opacity="1" stop-color="rgb(4.03595%, 29.695129%, 68.972778%)" offset="0.0859375"/><stop stop-opacity="1" stop-color="rgb(4.360962%, 29.750061%, 69.064331%)" offset="0.0898438"/><stop stop-opacity="1" stop-color="rgb(4.6875%, 29.804993%, 69.155884%)" offset="0.09375"/><stop stop-opacity="1" stop-color="rgb(5.014038%, 29.858398%, 69.247437%)" offset="0.0976562"/><stop stop-opacity="1" stop-color="rgb(5.340576%, 29.91333%, 69.338989%)" offset="0.101562"/><stop stop-opacity="1" stop-color="rgb(5.665588%, 29.968262%, 69.430542%)" offset="0.105469"/><stop stop-opacity="1" stop-color="rgb(5.992126%, 30.023193%, 69.522095%)" offset="0.109375"/><stop stop-opacity="1" stop-color="rgb(6.317139%, 30.076599%, 69.613647%)" offset="0.113281"/><stop stop-opacity="1" stop-color="rgb(6.643677%, 30.131531%, 69.7052%)" offset="0.117188"/><stop stop-opacity="1" stop-color="rgb(6.968689%, 30.186462%, 69.796753%)" offset="0.121094"/><stop stop-opacity="1" stop-color="rgb(7.295227%, 30.241394%, 69.888306%)" offset="0.125"/><stop stop-opacity="1" stop-color="rgb(7.620239%, 30.2948%, 69.979858%)" offset="0.128906"/><stop stop-opacity="1" stop-color="rgb(7.946777%, 30.349731%, 70.071411%)" offset="0.132812"/><stop stop-opacity="1" stop-color="rgb(8.27179%, 30.404663%, 70.162964%)" offset="0.136719"/><stop stop-opacity="1" stop-color="rgb(8.598328%, 30.459595%, 70.254517%)" offset="0.140625"/><stop stop-opacity="1" stop-color="rgb(8.92334%, 30.513%, 70.346069%)" offset="0.144531"/><stop stop-opacity="1" stop-color="rgb(9.249878%, 30.567932%, 70.437622%)" offset="0.148438"/><stop stop-opacity="1" stop-color="rgb(9.57489%, 30.622864%, 70.529175%)" offset="0.152344"/><stop stop-opacity="1" stop-color="rgb(9.901428%, 30.677795%, 70.620728%)" offset="0.15625"/><stop stop-opacity="1" stop-color="rgb(10.227966%, 30.731201%, 70.71228%)" offset="0.160156"/><stop stop-opacity="1" stop-color="rgb(10.554504%, 30.786133%, 70.803833%)" offset="0.164062"/><stop stop-opacity="1" stop-color="rgb(10.879517%, 30.841064%, 70.895386%)" offset="0.167969"/><stop stop-opacity="1" stop-color="rgb(11.206055%, 30.895996%, 70.986938%)" offset="0.171875"/><stop stop-opacity="1" stop-color="rgb(11.531067%, 30.949402%, 71.078491%)" offset="0.175781"/><stop stop-opacity="1" stop-color="rgb(11.857605%, 31.004333%, 71.170044%)" offset="0.179688"/><stop stop-opacity="1" stop-color="rgb(12.182617%, 31.059265%, 71.261597%)" offset="0.183594"/><stop stop-opacity="1" stop-color="rgb(12.509155%, 31.114197%, 71.353149%)" offset="0.1875"/><stop stop-opacity="1" stop-color="rgb(12.834167%, 31.167603%, 71.444702%)" offset="0.191406"/><stop stop-opacity="1" stop-color="rgb(13.160706%, 31.222534%, 71.536255%)" offset="0.195312"/><stop stop-opacity="1" stop-color="rgb(13.485718%, 31.277466%, 71.627808%)" offset="0.199219"/><stop stop-opacity="1" stop-color="rgb(13.812256%, 31.332397%, 71.71936%)" offset="0.203125"/><stop stop-opacity="1" stop-color="rgb(14.137268%, 31.385803%, 71.810913%)" offset="0.207031"/><stop stop-opacity="1" stop-color="rgb(14.463806%, 31.440735%, 71.902466%)" offset="0.210938"/><stop stop-opacity="1" stop-color="rgb(14.788818%, 31.495667%, 71.994019%)" offset="0.214844"/><stop stop-opacity="1" stop-color="rgb(15.115356%, 31.550598%, 72.085571%)" offset="0.21875"/><stop stop-opacity="1" stop-color="rgb(15.441895%, 31.604004%, 72.177124%)" offset="0.222656"/><stop stop-opacity="1" stop-color="rgb(15.768433%, 31.658936%, 72.268677%)" offset="0.226562"/><stop stop-opacity="1" stop-color="rgb(16.093445%, 31.713867%, 72.360229%)" offset="0.230469"/><stop stop-opacity="1" stop-color="rgb(16.419983%, 31.768799%, 72.451782%)" offset="0.234375"/><stop stop-opacity="1" stop-color="rgb(16.744995%, 31.822205%, 72.543335%)" offset="0.238281"/><stop stop-opacity="1" stop-color="rgb(17.071533%, 31.877136%, 72.634888%)" offset="0.242188"/><stop stop-opacity="1" stop-color="rgb(17.396545%, 31.932068%, 72.72644%)" offset="0.246094"/><stop stop-opacity="1" stop-color="rgb(17.723083%, 31.987%, 72.817993%)" offset="0.25"/><stop stop-opacity="1" stop-color="rgb(18.048096%, 32.040405%, 72.909546%)" offset="0.253906"/><stop stop-opacity="1" stop-color="rgb(18.374634%, 32.095337%, 73.001099%)" offset="0.257812"/><stop stop-opacity="1" stop-color="rgb(18.699646%, 32.150269%, 73.091125%)" offset="0.261719"/><stop stop-opacity="1" stop-color="rgb(19.026184%, 32.2052%, 73.182678%)" offset="0.265625"/><stop stop-opacity="1" stop-color="rgb(19.351196%, 32.260132%, 73.274231%)" offset="0.269531"/><stop stop-opacity="1" stop-color="rgb(19.677734%, 32.315063%, 73.365784%)" offset="0.273438"/><stop stop-opacity="1" stop-color="rgb(20.004272%, 32.368469%, 73.457336%)" offset="0.277344"/><stop stop-opacity="1" stop-color="rgb(20.330811%, 32.423401%, 73.548889%)" offset="0.28125"/><stop stop-opacity="1" stop-color="rgb(20.655823%, 32.478333%, 73.640442%)" offset="0.285156"/><stop stop-opacity="1" stop-color="rgb(20.982361%, 32.533264%, 73.731995%)" offset="0.289062"/><stop stop-opacity="1" stop-color="rgb(21.307373%, 32.58667%, 73.823547%)" offset="0.292969"/><stop stop-opacity="1" stop-color="rgb(21.633911%, 32.641602%, 73.9151%)" offset="0.296875"/><stop stop-opacity="1" stop-color="rgb(21.958923%, 32.696533%, 74.006653%)" offset="0.300781"/><stop stop-opacity="1" stop-color="rgb(22.285461%, 32.751465%, 74.098206%)" offset="0.304687"/><stop stop-opacity="1" stop-color="rgb(22.610474%, 32.804871%, 74.189758%)" offset="0.308594"/><stop stop-opacity="1" stop-color="rgb(22.937012%, 32.859802%, 74.281311%)" offset="0.3125"/><stop stop-opacity="1" stop-color="rgb(23.262024%, 32.914734%, 74.372864%)" offset="0.316406"/><stop stop-opacity="1" stop-color="rgb(23.588562%, 32.969666%, 74.464417%)" offset="0.320313"/><stop stop-opacity="1" stop-color="rgb(23.913574%, 33.023071%, 74.555969%)" offset="0.324219"/><stop stop-opacity="1" stop-color="rgb(24.240112%, 33.078003%, 74.647522%)" offset="0.328125"/><stop stop-opacity="1" stop-color="rgb(24.565125%, 33.132935%, 74.739075%)" offset="0.332031"/><stop stop-opacity="1" stop-color="rgb(24.891663%, 33.187866%, 74.830627%)" offset="0.335938"/><stop stop-opacity="1" stop-color="rgb(25.218201%, 33.241272%, 74.92218%)" offset="0.339844"/><stop stop-opacity="1" stop-color="rgb(25.544739%, 33.296204%, 75.013733%)" offset="0.34375"/><stop stop-opacity="1" stop-color="rgb(25.869751%, 33.351135%, 75.105286%)" offset="0.347656"/><stop stop-opacity="1" stop-color="rgb(26.196289%, 33.406067%, 75.196838%)" offset="0.351562"/><stop stop-opacity="1" stop-color="rgb(26.521301%, 33.459473%, 75.288391%)" offset="0.355469"/><stop stop-opacity="1" stop-color="rgb(26.847839%, 33.514404%, 75.379944%)" offset="0.359375"/><stop stop-opacity="1" stop-color="rgb(27.172852%, 33.569336%, 75.471497%)" offset="0.363281"/><stop stop-opacity="1" stop-color="rgb(27.49939%, 33.624268%, 75.563049%)" offset="0.367188"/><stop stop-opacity="1" stop-color="rgb(27.824402%, 33.677673%, 75.654602%)" offset="0.371094"/><stop stop-opacity="1" stop-color="rgb(28.15094%, 33.732605%, 75.746155%)" offset="0.375"/><stop stop-opacity="1" stop-color="rgb(28.475952%, 33.787537%, 75.837708%)" offset="0.378906"/><stop stop-opacity="1" stop-color="rgb(28.80249%, 33.842468%, 75.92926%)" offset="0.382812"/><stop stop-opacity="1" stop-color="rgb(29.127502%, 33.895874%, 76.020813%)" offset="0.386719"/><stop stop-opacity="1" stop-color="rgb(29.454041%, 33.950806%, 76.112366%)" offset="0.390625"/><stop stop-opacity="1" stop-color="rgb(29.779053%, 34.005737%, 76.203918%)" offset="0.394531"/><stop stop-opacity="1" stop-color="rgb(30.105591%, 34.060669%, 76.295471%)" offset="0.398438"/><stop stop-opacity="1" stop-color="rgb(30.432129%, 34.114075%, 76.387024%)" offset="0.402344"/><stop stop-opacity="1" stop-color="rgb(30.758667%, 34.169006%, 76.478577%)" offset="0.40625"/><stop stop-opacity="1" stop-color="rgb(31.083679%, 34.223938%, 76.570129%)" offset="0.410156"/><stop stop-opacity="1" stop-color="rgb(31.410217%, 34.27887%, 76.661682%)" offset="0.414062"/><stop stop-opacity="1" stop-color="rgb(31.735229%, 34.332275%, 76.753235%)" offset="0.417969"/><stop stop-opacity="1" stop-color="rgb(32.061768%, 34.387207%, 76.844788%)" offset="0.421875"/><stop stop-opacity="1" stop-color="rgb(32.38678%, 34.442139%, 76.93634%)" offset="0.425781"/><stop stop-opacity="1" stop-color="rgb(32.713318%, 34.49707%, 77.027893%)" offset="0.429687"/><stop stop-opacity="1" stop-color="rgb(33.03833%, 34.550476%, 77.119446%)" offset="0.433594"/><stop stop-opacity="1" stop-color="rgb(33.364868%, 34.605408%, 77.210999%)" offset="0.4375"/><stop stop-opacity="1" stop-color="rgb(33.68988%, 34.660339%, 77.302551%)" offset="0.441406"/><stop stop-opacity="1" stop-color="rgb(34.016418%, 34.715271%, 77.394104%)" offset="0.445313"/><stop stop-opacity="1" stop-color="rgb(34.341431%, 34.768677%, 77.485657%)" offset="0.449219"/><stop stop-opacity="1" stop-color="rgb(34.667969%, 34.823608%, 77.577209%)" offset="0.453125"/><stop stop-opacity="1" stop-color="rgb(34.994507%, 34.87854%, 77.668762%)" offset="0.457031"/><stop stop-opacity="1" stop-color="rgb(35.321045%, 34.933472%, 77.760315%)" offset="0.460938"/><stop stop-opacity="1" stop-color="rgb(35.646057%, 34.986877%, 77.851868%)" offset="0.464844"/><stop stop-opacity="1" stop-color="rgb(35.972595%, 35.041809%, 77.94342%)" offset="0.46875"/><stop stop-opacity="1" stop-color="rgb(36.297607%, 35.096741%, 78.034973%)" offset="0.472656"/><stop stop-opacity="1" stop-color="rgb(36.624146%, 35.151672%, 78.126526%)" offset="0.476562"/><stop stop-opacity="1" stop-color="rgb(36.949158%, 35.206604%, 78.218079%)" offset="0.480469"/><stop stop-opacity="1" stop-color="rgb(37.275696%, 35.261536%, 78.309631%)" offset="0.484375"/><stop stop-opacity="1" stop-color="rgb(37.600708%, 35.314941%, 78.401184%)" offset="0.488281"/><stop stop-opacity="1" stop-color="rgb(37.927246%, 35.369873%, 78.492737%)" offset="0.492188"/><stop stop-opacity="1" stop-color="rgb(38.252258%, 35.424805%, 78.58429%)" offset="0.496094"/><stop stop-opacity="1" stop-color="rgb(38.578796%, 35.479736%, 78.675842%)" offset="0.5"/><stop stop-opacity="1" stop-color="rgb(38.903809%, 35.533142%, 78.765869%)" offset="0.503906"/><stop stop-opacity="1" stop-color="rgb(39.230347%, 35.588074%, 78.857422%)" offset="0.507812"/><stop stop-opacity="1" stop-color="rgb(39.555359%, 35.643005%, 78.948975%)" offset="0.511719"/><stop stop-opacity="1" stop-color="rgb(39.881897%, 35.697937%, 79.040527%)" offset="0.515625"/><stop stop-opacity="1" stop-color="rgb(40.208435%, 35.751343%, 79.13208%)" offset="0.519531"/><stop stop-opacity="1" stop-color="rgb(40.534973%, 35.806274%, 79.223633%)" offset="0.523438"/><stop stop-opacity="1" stop-color="rgb(40.859985%, 35.861206%, 79.315186%)" offset="0.527344"/><stop stop-opacity="1" stop-color="rgb(41.186523%, 35.916138%, 79.406738%)" offset="0.53125"/><stop stop-opacity="1" stop-color="rgb(41.511536%, 35.969543%, 79.498291%)" offset="0.535156"/><stop stop-opacity="1" stop-color="rgb(41.838074%, 36.024475%, 79.589844%)" offset="0.539062"/><stop stop-opacity="1" stop-color="rgb(42.163086%, 36.079407%, 79.681396%)" offset="0.542969"/><stop stop-opacity="1" stop-color="rgb(42.489624%, 36.134338%, 79.772949%)" offset="0.546875"/><stop stop-opacity="1" stop-color="rgb(42.814636%, 36.187744%, 79.864502%)" offset="0.550781"/><stop stop-opacity="1" stop-color="rgb(43.141174%, 36.242676%, 79.956055%)" offset="0.554688"/><stop stop-opacity="1" stop-color="rgb(43.466187%, 36.297607%, 80.047607%)" offset="0.558594"/><stop stop-opacity="1" stop-color="rgb(43.792725%, 36.352539%, 80.13916%)" offset="0.5625"/><stop stop-opacity="1" stop-color="rgb(44.117737%, 36.405945%, 80.230713%)" offset="0.566406"/><stop stop-opacity="1" stop-color="rgb(44.444275%, 36.460876%, 80.322266%)" offset="0.570312"/><stop stop-opacity="1" stop-color="rgb(44.769287%, 36.515808%, 80.413818%)" offset="0.574219"/><stop stop-opacity="1" stop-color="rgb(45.095825%, 36.57074%, 80.505371%)" offset="0.578125"/><stop stop-opacity="1" stop-color="rgb(45.422363%, 36.624146%, 80.596924%)" offset="0.582031"/><stop stop-opacity="1" stop-color="rgb(45.748901%, 36.679077%, 80.688477%)" offset="0.585938"/><stop stop-opacity="1" stop-color="rgb(46.073914%, 36.734009%, 80.780029%)" offset="0.589844"/><stop stop-opacity="1" stop-color="rgb(46.400452%, 36.78894%, 80.871582%)" offset="0.59375"/><stop stop-opacity="1" stop-color="rgb(46.725464%, 36.842346%, 80.963135%)" offset="0.597656"/><stop stop-opacity="1" stop-color="rgb(47.052002%, 36.897278%, 81.054688%)" offset="0.601562"/><stop stop-opacity="1" stop-color="rgb(47.377014%, 36.952209%, 81.14624%)" offset="0.605469"/><stop stop-opacity="1" stop-color="rgb(47.703552%, 37.007141%, 81.237793%)" offset="0.609375"/><stop stop-opacity="1" stop-color="rgb(48.028564%, 37.060547%, 81.329346%)" offset="0.613281"/><stop stop-opacity="1" stop-color="rgb(48.355103%, 37.115479%, 81.420898%)" offset="0.617188"/><stop stop-opacity="1" stop-color="rgb(48.680115%, 37.17041%, 81.512451%)" offset="0.621094"/><stop stop-opacity="1" stop-color="rgb(49.006653%, 37.225342%, 81.604004%)" offset="0.625"/><stop stop-opacity="1" stop-color="rgb(49.331665%, 37.278748%, 81.695557%)" offset="0.628906"/><stop stop-opacity="1" stop-color="rgb(49.658203%, 37.333679%, 81.787109%)" offset="0.632812"/><stop stop-opacity="1" stop-color="rgb(49.983215%, 37.388611%, 81.878662%)" offset="0.636719"/><stop stop-opacity="1" stop-color="rgb(50.309753%, 37.443542%, 81.970215%)" offset="0.640625"/><stop stop-opacity="1" stop-color="rgb(50.636292%, 37.496948%, 82.061768%)" offset="0.644531"/><stop stop-opacity="1" stop-color="rgb(50.96283%, 37.55188%, 82.15332%)" offset="0.648438"/><stop stop-opacity="1" stop-color="rgb(51.287842%, 37.606812%, 82.244873%)" offset="0.652344"/><stop stop-opacity="1" stop-color="rgb(51.61438%, 37.661743%, 82.336426%)" offset="0.65625"/><stop stop-opacity="1" stop-color="rgb(51.939392%, 37.715149%, 82.427979%)" offset="0.660156"/><stop stop-opacity="1" stop-color="rgb(52.26593%, 37.770081%, 82.519531%)" offset="0.664062"/><stop stop-opacity="1" stop-color="rgb(52.590942%, 37.825012%, 82.611084%)" offset="0.667969"/><stop stop-opacity="1" stop-color="rgb(52.91748%, 37.879944%, 82.702637%)" offset="0.671875"/><stop stop-opacity="1" stop-color="rgb(53.242493%, 37.934875%, 82.794189%)" offset="0.675781"/><stop stop-opacity="1" stop-color="rgb(53.569031%, 37.989807%, 82.885742%)" offset="0.679688"/><stop stop-opacity="1" stop-color="rgb(53.894043%, 38.043213%, 82.977295%)" offset="0.683594"/><stop stop-opacity="1" stop-color="rgb(54.220581%, 38.098145%, 83.068848%)" offset="0.6875"/><stop stop-opacity="1" stop-color="rgb(54.545593%, 38.153076%, 83.1604%)" offset="0.691406"/><stop stop-opacity="1" stop-color="rgb(54.872131%, 38.208008%, 83.251953%)" offset="0.695312"/><stop stop-opacity="1" stop-color="rgb(55.198669%, 38.261414%, 83.343506%)" offset="0.699219"/><stop stop-opacity="1" stop-color="rgb(55.525208%, 38.316345%, 83.435059%)" offset="0.703125"/><stop stop-opacity="1" stop-color="rgb(55.85022%, 38.371277%, 83.526611%)" offset="0.707031"/><stop stop-opacity="1" stop-color="rgb(56.176758%, 38.426208%, 83.618164%)" offset="0.710938"/><stop stop-opacity="1" stop-color="rgb(56.50177%, 38.479614%, 83.709717%)" offset="0.714844"/><stop stop-opacity="1" stop-color="rgb(56.828308%, 38.534546%, 83.80127%)" offset="0.71875"/><stop stop-opacity="1" stop-color="rgb(57.15332%, 38.589478%, 83.892822%)" offset="0.722656"/><stop stop-opacity="1" stop-color="rgb(57.479858%, 38.644409%, 83.984375%)" offset="0.726562"/><stop stop-opacity="1" stop-color="rgb(57.804871%, 38.697815%, 84.075928%)" offset="0.730469"/><stop stop-opacity="1" stop-color="rgb(58.131409%, 38.752747%, 84.16748%)" offset="0.734375"/><stop stop-opacity="1" stop-color="rgb(58.456421%, 38.807678%, 84.259033%)" offset="0.738281"/><stop stop-opacity="1" stop-color="rgb(58.782959%, 38.86261%, 84.350586%)" offset="0.742188"/><stop stop-opacity="1" stop-color="rgb(59.107971%, 38.916016%, 84.440613%)" offset="0.746094"/><stop stop-opacity="1" stop-color="rgb(59.434509%, 38.970947%, 84.532166%)" offset="0.75"/><stop stop-opacity="1" stop-color="rgb(59.759521%, 39.025879%, 84.623718%)" offset="0.753906"/><stop stop-opacity="1" stop-color="rgb(60.08606%, 39.080811%, 84.715271%)" offset="0.757812"/><stop stop-opacity="1" stop-color="rgb(60.412598%, 39.134216%, 84.806824%)" offset="0.761719"/><stop stop-opacity="1" stop-color="rgb(60.739136%, 39.189148%, 84.898376%)" offset="0.765625"/><stop stop-opacity="1" stop-color="rgb(61.064148%, 39.24408%, 84.989929%)" offset="0.769531"/><stop stop-opacity="1" stop-color="rgb(61.390686%, 39.299011%, 85.081482%)" offset="0.773438"/><stop stop-opacity="1" stop-color="rgb(61.715698%, 39.352417%, 85.173035%)" offset="0.777344"/><stop stop-opacity="1" stop-color="rgb(62.042236%, 39.407349%, 85.264587%)" offset="0.78125"/><stop stop-opacity="1" stop-color="rgb(62.367249%, 39.46228%, 85.35614%)" offset="0.785156"/><stop stop-opacity="1" stop-color="rgb(62.693787%, 39.517212%, 85.447693%)" offset="0.789062"/><stop stop-opacity="1" stop-color="rgb(63.018799%, 39.570618%, 85.539246%)" offset="0.792969"/><stop stop-opacity="1" stop-color="rgb(63.345337%, 39.625549%, 85.630798%)" offset="0.796875"/><stop stop-opacity="1" stop-color="rgb(63.670349%, 39.680481%, 85.722351%)" offset="0.800781"/><stop stop-opacity="1" stop-color="rgb(63.996887%, 39.735413%, 85.813904%)" offset="0.804688"/><stop stop-opacity="1" stop-color="rgb(64.321899%, 39.788818%, 85.905457%)" offset="0.808594"/><stop stop-opacity="1" stop-color="rgb(64.648438%, 39.84375%, 85.997009%)" offset="0.8125"/><stop stop-opacity="1" stop-color="rgb(64.97345%, 39.898682%, 86.088562%)" offset="0.816406"/><stop stop-opacity="1" stop-color="rgb(65.299988%, 39.953613%, 86.180115%)" offset="0.820312"/><stop stop-opacity="1" stop-color="rgb(65.626526%, 40.007019%, 86.271667%)" offset="0.824219"/><stop stop-opacity="1" stop-color="rgb(65.953064%, 40.061951%, 86.36322%)" offset="0.828125"/><stop stop-opacity="1" stop-color="rgb(66.278076%, 40.116882%, 86.454773%)" offset="0.832031"/><stop stop-opacity="1" stop-color="rgb(66.604614%, 40.171814%, 86.546326%)" offset="0.835938"/><stop stop-opacity="1" stop-color="rgb(66.929626%, 40.22522%, 86.637878%)" offset="0.839844"/><stop stop-opacity="1" stop-color="rgb(67.256165%, 40.280151%, 86.729431%)" offset="0.84375"/><stop stop-opacity="1" stop-color="rgb(67.581177%, 40.335083%, 86.820984%)" offset="0.847656"/><stop stop-opacity="1" stop-color="rgb(67.907715%, 40.390015%, 86.912537%)" offset="0.851562"/><stop stop-opacity="1" stop-color="rgb(68.232727%, 40.44342%, 87.004089%)" offset="0.855469"/><stop stop-opacity="1" stop-color="rgb(68.559265%, 40.498352%, 87.095642%)" offset="0.859375"/><stop stop-opacity="1" stop-color="rgb(68.884277%, 40.553284%, 87.187195%)" offset="0.863281"/><stop stop-opacity="1" stop-color="rgb(69.210815%, 40.608215%, 87.278748%)" offset="0.867188"/><stop stop-opacity="1" stop-color="rgb(69.535828%, 40.661621%, 87.3703%)" offset="0.871094"/><stop stop-opacity="1" stop-color="rgb(69.862366%, 40.716553%, 87.461853%)" offset="0.875"/><stop stop-opacity="1" stop-color="rgb(70.188904%, 40.771484%, 87.553406%)" offset="0.878906"/><stop stop-opacity="1" stop-color="rgb(70.515442%, 40.826416%, 87.644958%)" offset="0.882812"/><stop stop-opacity="1" stop-color="rgb(70.840454%, 40.881348%, 87.736511%)" offset="0.886719"/><stop stop-opacity="1" stop-color="rgb(71.166992%, 40.936279%, 87.828064%)" offset="0.890625"/><stop stop-opacity="1" stop-color="rgb(71.492004%, 40.989685%, 87.919617%)" offset="0.894531"/><stop stop-opacity="1" stop-color="rgb(71.818542%, 41.044617%, 88.011169%)" offset="0.898438"/><stop stop-opacity="1" stop-color="rgb(72.143555%, 41.099548%, 88.102722%)" offset="0.902344"/><stop stop-opacity="1" stop-color="rgb(72.470093%, 41.15448%, 88.194275%)" offset="0.90625"/><stop stop-opacity="1" stop-color="rgb(72.795105%, 41.207886%, 88.285828%)" offset="0.910156"/><stop stop-opacity="1" stop-color="rgb(73.121643%, 41.262817%, 88.37738%)" offset="0.914062"/><stop stop-opacity="1" stop-color="rgb(73.446655%, 41.317749%, 88.468933%)" offset="0.917969"/><stop stop-opacity="1" stop-color="rgb(73.773193%, 41.372681%, 88.560486%)" offset="0.921875"/><stop stop-opacity="1" stop-color="rgb(74.098206%, 41.426086%, 88.652039%)" offset="0.925781"/><stop stop-opacity="1" stop-color="rgb(74.424744%, 41.481018%, 88.743591%)" offset="0.929688"/><stop stop-opacity="1" stop-color="rgb(74.749756%, 41.53595%, 88.835144%)" offset="0.933594"/><stop stop-opacity="1" stop-color="rgb(75.076294%, 41.590881%, 88.926697%)" offset="0.9375"/><stop stop-opacity="1" stop-color="rgb(75.402832%, 41.644287%, 89.01825%)" offset="0.941406"/><stop stop-opacity="1" stop-color="rgb(75.72937%, 41.699219%, 89.109802%)" offset="0.945312"/><stop stop-opacity="1" stop-color="rgb(76.054382%, 41.75415%, 89.201355%)" offset="0.949219"/><stop stop-opacity="1" stop-color="rgb(76.38092%, 41.809082%, 89.292908%)" offset="0.953125"/><stop stop-opacity="1" stop-color="rgb(76.705933%, 41.862488%, 89.38446%)" offset="0.957031"/><stop stop-opacity="1" stop-color="rgb(77.032471%, 41.917419%, 89.476013%)" offset="0.960938"/><stop stop-opacity="1" stop-color="rgb(77.357483%, 41.972351%, 89.567566%)" offset="0.964844"/><stop stop-opacity="1" stop-color="rgb(77.684021%, 42.027283%, 89.659119%)" offset="0.96875"/><stop stop-opacity="1" stop-color="rgb(78.009033%, 42.080688%, 89.750671%)" offset="0.972656"/><stop stop-opacity="1" stop-color="rgb(78.335571%, 42.13562%, 89.842224%)" offset="0.976562"/><stop stop-opacity="1" stop-color="rgb(78.660583%, 42.190552%, 89.933777%)" offset="0.980469"/><stop stop-opacity="1" stop-color="rgb(78.987122%, 42.245483%, 90.02533%)" offset="0.984375"/><stop stop-opacity="1" stop-color="rgb(79.298401%, 42.297363%, 90.112305%)" offset="0.988281"/><stop stop-opacity="1" stop-color="rgb(79.60968%, 42.349243%, 90.19928%)" offset="0.992187"/><stop stop-opacity="1" stop-color="rgb(79.60968%, 42.349243%, 90.19928%)" offset="1"/></linearGradient><clipPath id="55af7cbfca"><rect x="0" width="375" y="0" height="375"/></clipPath><clipPath id="eed0e76238"><rect x="0" width="375" y="0" height="375"/></clipPath><clipPath id="400c40623a"><rect x="0" width="375" y="0" height="375"/></clipPath><mask id="29fc8185c9"><g filter="url(#ed03105306)"><g transform="matrix(1, 0, 0, 1, 0, 0)"><g clip-path="url(#400c40623a)"><g transform="matrix(1, 0, 0, 1, 0, 0)"><g clip-path="url(#eed0e76238)"><g fill="#000000" fill-opacity="1"><g transform="translate(13.968366, 270.547263)"><g><path d="M -2.515625 -193.203125 C -2.515625 -199.222656 -0.253906 -204.488281 4.265625 -209 C 8.785156 -213.519531 14.054688 -215.78125 20.078125 -215.78125 L 72.765625 -215.78125 C 77.785156 -215.78125 82.632812 -213.769531 87.3125 -209.75 C 91.664062 -211.425781 96.097656 -212.847656 100.609375 -214.015625 C 105.128906 -215.191406 109.898438 -215.78125 114.921875 -215.78125 L 133.484375 -215.78125 C 139.835938 -215.78125 146.273438 -214.859375 152.796875 -213.015625 C 159.328125 -211.179688 165.265625 -208.925781 170.609375 -206.25 C 181.316406 -212.601562 193.695312 -215.78125 207.75 -215.78125 L 248.90625 -215.78125 C 262.613281 -215.78125 275.15625 -212.515625 286.53125 -205.984375 C 297.90625 -199.460938 306.9375 -190.851562 313.625 -180.15625 L 327.1875 -167.109375 C 334.207031 -160.078125 339.722656 -151.960938 343.734375 -142.765625 C 347.753906 -133.566406 349.765625 -123.613281 349.765625 -112.90625 L 349.765625 17.5625 C 349.765625 22.914062 347.671875 27.765625 343.484375 32.109375 C 339.304688 36.460938 334.375 38.640625 328.6875 38.640625 L 276 38.640625 C 270.644531 38.640625 265.789062 36.460938 261.4375 32.109375 L 242.375 13.546875 C 238.695312 11.878906 236.019531 9.875 234.34375 7.53125 L 234.34375 17.5625 C 234.34375 22.914062 232.25 27.765625 228.0625 32.109375 C 223.882812 36.460938 218.953125 38.640625 213.265625 38.640625 L 160.578125 38.640625 C 155.222656 38.640625 150.375 36.460938 146.03125 32.109375 L 126.953125 13.546875 C 123.273438 11.878906 120.597656 9.875 118.921875 7.53125 L 118.921875 17.5625 C 118.921875 22.914062 116.832031 27.765625 112.65625 32.109375 C 108.476562 36.460938 103.546875 38.640625 97.859375 38.640625 L 45.15625 38.640625 C 39.8125 38.640625 34.960938 36.460938 30.609375 32.109375 L 11.546875 13.046875 C 7.523438 11.367188 4.175781 8.609375 1.5 4.765625 C -1.175781 0.921875 -2.515625 -3.175781 -2.515625 -7.53125 Z M -2.515625 -193.203125 "/></g></g></g></g></g></g></g></g></mask><clipPath id="e50f1a2134"><path d="M 0 0 L 375 0 L 375 375 L 0 375 Z M 0 0 " clip-rule="nonzero"/></clipPath><clipPath id="d69ef1c322"><rect x="0" width="375" y="0" height="375"/></clipPath><clipPath id="927447f4a9"><rect x="0" width="375" y="0" height="375"/></clipPath><clipPath id="8f9180ca1b"><path d="M 0.28125 5 L 12 5 L 12 17 L 0.28125 17 Z M 0.28125 5 " clip-rule="nonzero"/></clipPath><clipPath id="18b854600a"><path d="M 144 5 L 155.800781 5 L 155.800781 18 L 144 18 Z M 144 5 " clip-rule="nonzero"/></clipPath><clipPath id="9d7e3a22c9"><rect x="0" width="156" y="0" height="69"/></clipPath><clipPath id="3bc1277254"><rect x="0" width="375" y="0" height="375"/></clipPath></defs><g transform="matrix(1, 0, 0, 1, 0, 0)"><g clip-path="url(#3bc1277254)"><g transform="matrix(1, 0, 0, 1, 0, 0)"><g clip-path="url(#927447f4a9)"><g mask="url(#29fc8185c9)"><g transform="matrix(1, 0, 0, 1, 0, 0)"><g clip-path="url(#d69ef1c322)"><g clip-path="url(#e50f1a2134)"><rect x="-201.3" fill="url(#a5121c5e4c)" width="777.6" height="777.599981" y="-201.299995"/></g></g></g></g></g></g><g fill="#e4e2dd" fill-opacity="1"><g transform="translate(59.434688, 159.503822)"><g><path d="M 3.140625 0 L 3.140625 -26.703125 L 9.953125 -26.703125 L 10.46875 -24.34375 L 10.734375 -24.34375 C 11.253906 -25.082031 12.085938 -25.75 13.234375 -26.34375 C 14.390625 -26.9375 15.664062 -27.234375 17.0625 -27.234375 C 18.8125 -27.234375 20.320312 -26.847656 21.59375 -26.078125 C 22.875 -25.304688 23.789062 -24.46875 24.34375 -23.5625 L 24.609375 -23.5625 C 25.273438 -24.539062 26.3125 -25.394531 27.71875 -26.125 C 29.132812 -26.863281 30.769531 -27.234375 32.625 -27.234375 C 34.46875 -27.234375 36.148438 -26.757812 37.671875 -25.8125 C 39.191406 -24.875 40.382812 -23.582031 41.25 -21.9375 C 42.125 -20.300781 42.5625 -18.453125 42.5625 -16.390625 L 42.5625 0 L 34.65625 0 L 34.65625 -15.234375 C 34.65625 -16.671875 34.316406 -17.769531 33.640625 -18.53125 C 32.960938 -19.300781 32.046875 -19.6875 30.890625 -19.6875 C 29.703125 -19.6875 28.722656 -19.265625 27.953125 -18.421875 C 27.191406 -17.585938 26.8125 -16.523438 26.8125 -15.234375 L 26.8125 0 L 18.90625 0 L 18.90625 -15.234375 C 18.90625 -16.671875 18.5625 -17.769531 17.875 -18.53125 C 17.195312 -19.300781 16.28125 -19.6875 15.125 -19.6875 C 13.945312 -19.6875 12.972656 -19.273438 12.203125 -18.453125 C 11.429688 -17.628906 11.046875 -16.554688 11.046875 -15.234375 L 11.046875 0 Z M 3.140625 0 "/></g></g></g><g fill="#e4e2dd" fill-opacity="1"><g transform="translate(104.86581, 159.503822)"><g><path d="M 15.8125 0.53125 C 13.15625 0.53125 10.765625 -0.0703125 8.640625 -1.28125 C 6.515625 -2.488281 4.847656 -4.144531 3.640625 -6.25 C 2.429688 -8.363281 1.828125 -10.734375 1.828125 -13.359375 C 1.828125 -15.972656 2.429688 -18.332031 3.640625 -20.4375 C 4.847656 -22.550781 6.515625 -24.210938 8.640625 -25.421875 C 10.765625 -26.628906 13.15625 -27.234375 15.8125 -27.234375 C 18.46875 -27.234375 20.859375 -26.628906 22.984375 -25.421875 C 25.109375 -24.210938 26.773438 -22.550781 27.984375 -20.4375 C 29.191406 -18.332031 29.796875 -15.972656 29.796875 -13.359375 C 29.796875 -10.734375 29.191406 -8.363281 27.984375 -6.25 C 26.773438 -4.144531 25.109375 -2.488281 22.984375 -1.28125 C 20.859375 -0.0703125 18.46875 0.53125 15.8125 0.53125 Z M 15.8125 -6.8125 C 17.519531 -6.8125 18.957031 -7.421875 20.125 -8.640625 C 21.300781 -9.859375 21.890625 -11.429688 21.890625 -13.359375 C 21.890625 -15.273438 21.300781 -16.84375 20.125 -18.0625 C 18.957031 -19.28125 17.519531 -19.890625 15.8125 -19.890625 C 14.101562 -19.890625 12.660156 -19.28125 11.484375 -18.0625 C 10.316406 -16.84375 9.734375 -15.273438 9.734375 -13.359375 C 9.734375 -11.429688 10.316406 -9.859375 11.484375 -8.640625 C 12.660156 -7.421875 14.101562 -6.8125 15.8125 -6.8125 Z M 15.8125 -6.8125 "/></g></g></g><g fill="#e4e2dd" fill-opacity="1"><g transform="translate(136.479177, 159.503822)"><g><path d="M 3.140625 0 L 3.140625 -26.703125 L 9.953125 -26.703125 L 10.46875 -24.34375 L 10.734375 -24.34375 C 11.253906 -25.082031 12.085938 -25.75 13.234375 -26.34375 C 14.390625 -26.9375 15.664062 -27.234375 17.0625 -27.234375 C 18.8125 -27.234375 20.320312 -26.847656 21.59375 -26.078125 C 22.875 -25.304688 23.789062 -24.46875 24.34375 -23.5625 L 24.609375 -23.5625 C 25.273438 -24.539062 26.3125 -25.394531 27.71875 -26.125 C 29.132812 -26.863281 30.769531 -27.234375 32.625 -27.234375 C 34.46875 -27.234375 36.148438 -26.757812 37.671875 -25.8125 C 39.191406 -24.875 40.382812 -23.582031 41.25 -21.9375 C 42.125 -20.300781 42.5625 -18.453125 42.5625 -16.390625 L 42.5625 0 L 34.65625 0 L 34.65625 -15.234375 C 34.65625 -16.671875 34.316406 -17.769531 33.640625 -18.53125 C 32.960938 -19.300781 32.046875 -19.6875 30.890625 -19.6875 C 29.703125 -19.6875 28.722656 -19.265625 27.953125 -18.421875 C 27.191406 -17.585938 26.8125 -16.523438 26.8125 -15.234375 L 26.8125 0 L 18.90625 0 L 18.90625 -15.234375 C 18.90625 -16.671875 18.5625 -17.769531 17.875 -18.53125 C 17.195312 -19.300781 16.28125 -19.6875 15.125 -19.6875 C 13.945312 -19.6875 12.972656 -19.273438 12.203125 -18.453125 C 11.429688 -17.628906 11.046875 -16.554688 11.046875 -15.234375 L 11.046875 0 Z M 3.140625 0 "/></g></g></g><g fill="#e4e2dd" fill-opacity="1"><g transform="translate(181.9103, 159.503822)"><g><path d="M 15.859375 0.53125 C 13.210938 0.53125 10.820312 -0.0703125 8.6875 -1.28125 C 6.5625 -2.488281 4.882812 -4.144531 3.65625 -6.25 C 2.4375 -8.363281 1.828125 -10.734375 1.828125 -13.359375 C 1.828125 -15.972656 2.4375 -18.332031 3.65625 -20.4375 C 4.882812 -22.550781 6.5625 -24.210938 8.6875 -25.421875 C 10.820312 -26.628906 13.210938 -27.234375 15.859375 -27.234375 C 18.378906 -27.234375 20.675781 -26.640625 22.75 -25.453125 C 24.820312 -24.265625 26.453125 -22.628906 27.640625 -20.546875 C 28.828125 -18.472656 29.421875 -16.179688 29.421875 -13.671875 C 29.421875 -12.722656 29.335938 -11.847656 29.171875 -11.046875 L 9.6875 -11.046875 C 9.894531 -9.578125 10.570312 -8.34375 11.71875 -7.34375 C 12.875 -6.351562 14.253906 -5.859375 15.859375 -5.859375 C 17.046875 -5.859375 18.054688 -6.082031 18.890625 -6.53125 C 19.734375 -6.988281 20.363281 -7.460938 20.78125 -7.953125 L 28.75 -7.953125 C 28.394531 -6.765625 27.691406 -5.523438 26.640625 -4.234375 C 25.597656 -2.941406 24.160156 -1.820312 22.328125 -0.875 C 20.492188 0.0625 18.335938 0.53125 15.859375 0.53125 Z M 21.625 -15.8125 C 21.414062 -17.28125 20.785156 -18.5 19.734375 -19.46875 C 18.691406 -20.445312 17.398438 -20.9375 15.859375 -20.9375 C 14.222656 -20.9375 12.863281 -20.445312 11.78125 -19.46875 C 10.695312 -18.5 10 -17.28125 9.6875 -15.8125 Z M 21.625 -15.8125 "/></g></g></g><g fill="#e4e2dd" fill-opacity="1"><g transform="translate(213.157286, 159.503822)"><g><path d="M 3.140625 0 L 3.140625 -26.703125 L 9.953125 -26.703125 L 10.46875 -24.34375 L 10.734375 -24.34375 C 11.359375 -25.082031 12.304688 -25.75 13.578125 -26.34375 C 14.859375 -26.9375 16.40625 -27.234375 18.21875 -27.234375 C 20.25 -27.234375 22.054688 -26.769531 23.640625 -25.84375 C 25.222656 -24.914062 26.457031 -23.601562 27.34375 -21.90625 C 28.238281 -20.21875 28.6875 -18.253906 28.6875 -16.015625 L 28.6875 0 L 20.78125 0 L 20.78125 -14.71875 C 20.78125 -16.175781 20.332031 -17.367188 19.4375 -18.296875 C 18.550781 -19.222656 17.378906 -19.6875 15.921875 -19.6875 C 14.453125 -19.6875 13.269531 -19.222656 12.375 -18.296875 C 11.488281 -17.367188 11.046875 -16.175781 11.046875 -14.71875 L 11.046875 0 Z M 3.140625 0 "/></g></g></g><g fill="#e4e2dd" fill-opacity="1"><g transform="translate(244.71832, 159.503822)"><g><path d="M 11.625 0.53125 C 9.632812 0.53125 7.894531 0.164062 6.40625 -0.5625 C 4.925781 -1.300781 3.789062 -2.289062 3 -3.53125 C 2.21875 -4.769531 1.828125 -6.160156 1.828125 -7.703125 C 1.828125 -10.347656 2.769531 -12.472656 4.65625 -14.078125 C 6.539062 -15.691406 9.265625 -16.5 12.828125 -16.5 L 18.6875 -16.5 L 18.6875 -16.96875 C 18.6875 -18.113281 18.3125 -19.0625 17.5625 -19.8125 C 16.8125 -20.5625 15.84375 -20.9375 14.65625 -20.9375 C 13.570312 -20.9375 12.71875 -20.703125 12.09375 -20.234375 C 11.46875 -19.765625 11.015625 -19.21875 10.734375 -18.59375 L 2.984375 -18.59375 C 3.160156 -20.050781 3.726562 -21.441406 4.6875 -22.765625 C 5.644531 -24.097656 6.96875 -25.175781 8.65625 -26 C 10.351562 -26.820312 12.351562 -27.234375 14.65625 -27.234375 C 17.0625 -27.234375 19.164062 -26.773438 20.96875 -25.859375 C 22.769531 -24.953125 24.15625 -23.722656 25.125 -22.171875 C 26.101562 -20.617188 26.59375 -18.882812 26.59375 -16.96875 L 26.59375 0 L 19.734375 0 L 19.21875 -2.296875 L 18.953125 -2.296875 C 18.359375 -1.566406 17.40625 -0.910156 16.09375 -0.328125 C 14.789062 0.242188 13.300781 0.53125 11.625 0.53125 Z M 13.359375 -5.609375 C 15.023438 -5.609375 16.328125 -6.0625 17.265625 -6.96875 C 18.210938 -7.875 18.6875 -9.09375 18.6875 -10.625 L 18.6875 -11.25 L 13.875 -11.25 C 12.507812 -11.25 11.488281 -10.992188 10.8125 -10.484375 C 10.132812 -9.984375 9.796875 -9.300781 9.796875 -8.4375 C 9.796875 -7.5625 10.097656 -6.867188 10.703125 -6.359375 C 11.316406 -5.859375 12.203125 -5.609375 13.359375 -5.609375 Z M 13.359375 -5.609375 "/></g></g></g><g transform="matrix(1, 0, 0, 1, 59, 180)"><g clip-path="url(#9d7e3a22c9)"><g clip-path="url(#8f9180ca1b)"><g fill="#e4e2dd" fill-opacity="1"><g transform="translate(0.434673, 16.893229)"><g><path d="M 7.421875 -3.109375 L 3.84375 -3.109375 L 2.828125 0 L 0.15625 0 L 4.125 -11 L 7.21875 -11 L 11.140625 0 L 8.4375 0 Z M 5.640625 -8.828125 L 4.46875 -5.0625 L 6.8125 -5.0625 Z M 5.640625 -8.828125 "/></g></g></g></g><g fill="#e4e2dd" fill-opacity="1"><g transform="translate(11.426784, 16.893229)"><g><path d="M 11.390625 0 L 8.0625 0 L 3.765625 -7.875 C 3.804688 -7.289062 3.832031 -6.726562 3.84375 -6.1875 C 3.851562 -5.65625 3.859375 -5.1875 3.859375 -4.78125 L 3.859375 0 L 1.359375 0 L 1.359375 -11 L 4.5625 -11 L 8.984375 -2.90625 C 8.953125 -3.476562 8.929688 -4.050781 8.921875 -4.625 C 8.910156 -5.207031 8.90625 -5.703125 8.90625 -6.109375 L 8.90625 -11 L 11.390625 -11 Z M 11.390625 0 "/></g></g></g><g fill="#e4e2dd" fill-opacity="1"><g transform="translate(23.772991, 16.893229)"><g><path d="M 6.609375 -4.234375 L 6.609375 0 L 4.125 0 L 4.125 -4.203125 L 0.234375 -11 L 3.0625 -11 L 5.453125 -6.40625 L 7.75 -11 L 10.484375 -11 Z M 6.609375 -4.234375 "/></g></g></g><g fill="#e4e2dd" fill-opacity="1"><g transform="translate(34.016354, 16.893229)"><g><path d="M 16.0625 -11 L 13.203125 0 L 9.875 0 L 8.21875 -8.90625 L 6.453125 0 L 3.125 0 L 0.421875 -11 L 3.09375 -11 L 4.78125 -1.9375 L 6.484375 -10.84375 L 10.046875 -10.84375 L 11.703125 -1.859375 L 13.5 -11 Z M 16.0625 -11 "/></g></g></g><g fill="#e4e2dd" fill-opacity="1"><g transform="translate(49.946956, 16.893229)"><g><path d="M 11.15625 -11 L 11.15625 0 L 8.671875 0 L 8.671875 -4.421875 L 3.859375 -4.421875 L 3.859375 0 L 1.359375 0 L 1.359375 -11 L 3.859375 -11 L 3.859375 -6.375 L 8.671875 -6.375 L 8.671875 -11 Z M 11.15625 -11 "/></g></g></g><g fill="#e4e2dd" fill-opacity="1"><g transform="translate(62.054215, 16.893229)"><g><path d="M 9.515625 -1.953125 L 9.515625 0 L 1.359375 0 L 1.359375 -11 L 9.359375 -11 L 9.359375 -9.046875 L 3.859375 -9.046875 L 3.859375 -6.484375 L 8.984375 -6.484375 L 8.984375 -4.546875 L 3.859375 -4.546875 L 3.859375 -1.953125 Z M 9.515625 -1.953125 "/></g></g></g><g fill="#e4e2dd" fill-opacity="1"><g transform="translate(72.026767, 16.893229)"><g><path d="M 9.59375 -2.71875 C 9.664062 -2.070312 9.765625 -1.535156 9.890625 -1.109375 C 10.015625 -0.691406 10.1875 -0.320312 10.40625 0 L 7.6875 0 C 7.539062 -0.382812 7.425781 -0.753906 7.34375 -1.109375 C 7.269531 -1.472656 7.207031 -1.882812 7.15625 -2.34375 C 7.082031 -2.9375 6.925781 -3.398438 6.6875 -3.734375 C 6.457031 -4.078125 6.132812 -4.265625 5.71875 -4.296875 C 5.570312 -4.304688 5.425781 -4.3125 5.28125 -4.3125 C 5.132812 -4.3125 4.988281 -4.3125 4.84375 -4.3125 L 3.859375 -4.3125 L 3.859375 0 L 1.359375 0 L 1.359375 -11 L 5.53125 -11 C 5.863281 -11 6.148438 -10.992188 6.390625 -10.984375 C 6.628906 -10.972656 6.894531 -10.953125 7.1875 -10.921875 C 7.71875 -10.859375 8.203125 -10.71875 8.640625 -10.5 C 9.085938 -10.289062 9.441406 -9.984375 9.703125 -9.578125 C 9.972656 -9.171875 10.109375 -8.644531 10.109375 -8 C 10.109375 -7.300781 9.914062 -6.722656 9.53125 -6.265625 C 9.144531 -5.816406 8.609375 -5.492188 7.921875 -5.296875 C 8.484375 -5.085938 8.882812 -4.765625 9.125 -4.328125 C 9.375 -3.898438 9.53125 -3.363281 9.59375 -2.71875 Z M 3.859375 -6.15625 L 5.140625 -6.15625 C 5.328125 -6.15625 5.488281 -6.15625 5.625 -6.15625 C 5.757812 -6.15625 5.882812 -6.160156 6 -6.171875 C 6.394531 -6.210938 6.738281 -6.335938 7.03125 -6.546875 C 7.332031 -6.753906 7.484375 -7.109375 7.484375 -7.609375 C 7.484375 -8.097656 7.347656 -8.441406 7.078125 -8.640625 C 6.816406 -8.847656 6.488281 -8.972656 6.09375 -9.015625 C 5.976562 -9.023438 5.851562 -9.03125 5.71875 -9.03125 C 5.582031 -9.039062 5.425781 -9.046875 5.25 -9.046875 L 3.859375 -9.046875 Z M 3.859375 -6.15625 "/></g></g></g><g fill="#e4e2dd" fill-opacity="1"><g transform="translate(82.636533, 16.893229)"><g><path d="M 9.515625 -1.953125 L 9.515625 0 L 1.359375 0 L 1.359375 -11 L 9.359375 -11 L 9.359375 -9.046875 L 3.859375 -9.046875 L 3.859375 -6.484375 L 8.984375 -6.484375 L 8.984375 -4.546875 L 3.859375 -4.546875 L 3.859375 -1.953125 Z M 9.515625 -1.953125 "/></g></g></g><g fill="#e4e2dd" fill-opacity="1"><g transform="translate(92.609086, 16.893229)"><g/></g></g><g fill="#e4e2dd" fill-opacity="1"><g transform="translate(95.572168, 16.893229)"><g><path d="M 5.09375 -11.21875 C 6.007812 -11.21875 6.757812 -11.0625 7.34375 -10.75 C 7.9375 -10.445312 8.390625 -10.03125 8.703125 -9.5 C 9.023438 -8.96875 9.222656 -8.367188 9.296875 -7.703125 L 6.78125 -7.703125 C 6.707031 -8.210938 6.523438 -8.617188 6.234375 -8.921875 C 5.953125 -9.222656 5.546875 -9.375 5.015625 -9.375 C 4.628906 -9.375 4.3125 -9.28125 4.0625 -9.09375 C 3.8125 -8.90625 3.6875 -8.609375 3.6875 -8.203125 C 3.6875 -7.796875 3.851562 -7.46875 4.1875 -7.21875 C 4.519531 -6.96875 5.128906 -6.734375 6.015625 -6.515625 C 7.222656 -6.234375 8.101562 -5.800781 8.65625 -5.21875 C 9.207031 -4.644531 9.484375 -3.925781 9.484375 -3.0625 C 9.484375 -2.351562 9.285156 -1.753906 8.890625 -1.265625 C 8.492188 -0.773438 7.976562 -0.40625 7.34375 -0.15625 C 6.707031 0.09375 6.023438 0.21875 5.296875 0.21875 C 3.941406 0.21875 2.847656 -0.0664062 2.015625 -0.640625 C 1.179688 -1.222656 0.71875 -2.109375 0.625 -3.296875 L 3.140625 -3.296875 C 3.253906 -2.734375 3.507812 -2.3125 3.90625 -2.03125 C 4.300781 -1.757812 4.75 -1.625 5.25 -1.625 C 5.695312 -1.625 6.078125 -1.734375 6.390625 -1.953125 C 6.710938 -2.179688 6.875 -2.484375 6.875 -2.859375 C 6.875 -3.234375 6.726562 -3.554688 6.4375 -3.828125 C 6.144531 -4.097656 5.617188 -4.320312 4.859375 -4.5 C 4.078125 -4.695312 3.398438 -4.925781 2.828125 -5.1875 C 2.253906 -5.457031 1.816406 -5.8125 1.515625 -6.25 C 1.210938 -6.695312 1.0625 -7.269531 1.0625 -7.96875 C 1.0625 -8.65625 1.25 -9.238281 1.625 -9.71875 C 2.007812 -10.207031 2.503906 -10.578125 3.109375 -10.828125 C 3.722656 -11.085938 4.382812 -11.21875 5.09375 -11.21875 Z M 5.09375 -11.21875 "/></g></g></g><g fill="#e4e2dd" fill-opacity="1"><g transform="translate(105.385422, 16.893229)"><g><path d="M 10.125 -9.046875 L 6.453125 -9.046875 L 6.453125 0 L 3.96875 0 L 3.96875 -9.046875 L 0.296875 -9.046875 L 0.296875 -11 L 10.125 -11 Z M 10.125 -9.046875 "/></g></g></g><g fill="#e4e2dd" fill-opacity="1"><g transform="translate(115.373897, 16.893229)"><g><path d="M 10.5625 -11 L 10.5625 -4.640625 C 10.5625 -4.378906 10.554688 -4.148438 10.546875 -3.953125 C 10.546875 -3.765625 10.535156 -3.523438 10.515625 -3.234375 C 10.472656 -2.617188 10.289062 -2.046875 9.96875 -1.515625 C 9.644531 -0.992188 9.148438 -0.570312 8.484375 -0.25 C 7.816406 0.0625 6.945312 0.21875 5.875 0.21875 C 4.800781 0.21875 3.929688 0.0625 3.265625 -0.25 C 2.609375 -0.570312 2.117188 -0.992188 1.796875 -1.515625 C 1.472656 -2.046875 1.285156 -2.617188 1.234375 -3.234375 C 1.222656 -3.523438 1.210938 -3.765625 1.203125 -3.953125 C 1.203125 -4.148438 1.203125 -4.378906 1.203125 -4.640625 L 1.203125 -11 L 3.6875 -11 L 3.6875 -4.265625 C 3.6875 -4.117188 3.6875 -3.988281 3.6875 -3.875 C 3.6875 -3.769531 3.691406 -3.65625 3.703125 -3.53125 C 3.753906 -2.9375 3.957031 -2.46875 4.3125 -2.125 C 4.675781 -1.789062 5.195312 -1.625 5.875 -1.625 C 6.570312 -1.625 7.097656 -1.789062 7.453125 -2.125 C 7.804688 -2.46875 8.003906 -2.9375 8.046875 -3.53125 C 8.066406 -3.65625 8.078125 -3.769531 8.078125 -3.875 C 8.078125 -3.988281 8.078125 -4.117188 8.078125 -4.265625 L 8.078125 -11 Z M 10.5625 -11 "/></g></g></g><g fill="#e4e2dd" fill-opacity="1"><g transform="translate(126.668682, 16.893229)"><g><path d="M 6.703125 -10.9375 C 7.554688 -10.84375 8.332031 -10.59375 9.03125 -10.1875 C 9.726562 -9.78125 10.28125 -9.203125 10.6875 -8.453125 C 11.09375 -7.710938 11.296875 -6.773438 11.296875 -5.640625 C 11.296875 -4.515625 11.085938 -3.550781 10.671875 -2.75 C 10.265625 -1.957031 9.710938 -1.335938 9.015625 -0.890625 C 8.316406 -0.441406 7.539062 -0.164062 6.6875 -0.0625 C 6.414062 -0.03125 6.1875 -0.0078125 6 0 C 5.820312 0 5.585938 0 5.296875 0 L 1.359375 0 L 1.359375 -11 L 5.3125 -11 C 5.601562 -11 5.835938 -10.992188 6.015625 -10.984375 C 6.203125 -10.984375 6.429688 -10.96875 6.703125 -10.9375 Z M 6.09375 -2 C 6.863281 -2.082031 7.484375 -2.4375 7.953125 -3.0625 C 8.429688 -3.695312 8.671875 -4.546875 8.671875 -5.609375 C 8.671875 -6.648438 8.4375 -7.453125 7.96875 -8.015625 C 7.5 -8.585938 6.878906 -8.914062 6.109375 -9 C 5.921875 -9.019531 5.742188 -9.03125 5.578125 -9.03125 C 5.421875 -9.039062 5.222656 -9.046875 4.984375 -9.046875 L 3.859375 -9.046875 L 3.859375 -1.953125 L 4.96875 -1.953125 C 5.207031 -1.953125 5.40625 -1.953125 5.5625 -1.953125 C 5.726562 -1.960938 5.90625 -1.976562 6.09375 -2 Z M 6.09375 -2 "/></g></g></g><g fill="#e4e2dd" fill-opacity="1"><g transform="translate(138.441382, 16.893229)"><g><path d="M 3.859375 0 L 1.359375 0 L 1.359375 -11 L 3.859375 -11 Z M 3.859375 0 "/></g></g></g><g clip-path="url(#18b854600a)"><g fill="#e4e2dd" fill-opacity="1"><g transform="translate(143.252418, 16.893229)"><g><path d="M 6.359375 -11.21875 C 7.492188 -11.21875 8.472656 -10.984375 9.296875 -10.515625 C 10.117188 -10.046875 10.753906 -9.382812 11.203125 -8.53125 C 11.648438 -7.675781 11.875 -6.664062 11.875 -5.5 C 11.875 -4.34375 11.648438 -3.335938 11.203125 -2.484375 C 10.753906 -1.628906 10.117188 -0.960938 9.296875 -0.484375 C 8.472656 -0.015625 7.492188 0.21875 6.359375 0.21875 C 5.222656 0.21875 4.238281 -0.015625 3.40625 -0.484375 C 2.582031 -0.960938 1.945312 -1.628906 1.5 -2.484375 C 1.050781 -3.335938 0.828125 -4.34375 0.828125 -5.5 C 0.828125 -6.664062 1.050781 -7.675781 1.5 -8.53125 C 1.945312 -9.382812 2.582031 -10.046875 3.40625 -10.515625 C 4.238281 -10.984375 5.222656 -11.21875 6.359375 -11.21875 Z M 6.359375 -1.625 C 7.273438 -1.625 7.992188 -1.960938 8.515625 -2.640625 C 9.035156 -3.328125 9.296875 -4.28125 9.296875 -5.5 C 9.296875 -6.726562 9.035156 -7.679688 8.515625 -8.359375 C 7.992188 -9.035156 7.273438 -9.375 6.359375 -9.375 C 5.441406 -9.375 4.71875 -9.035156 4.1875 -8.359375 C 3.664062 -7.679688 3.40625 -6.726562 3.40625 -5.5 C 3.40625 -4.28125 3.664062 -3.328125 4.1875 -2.640625 C 4.71875 -1.960938 5.441406 -1.625 6.359375 -1.625 Z M 6.359375 -1.625 "/></g></g></g></g><g fill="#e4e2dd" fill-opacity="1"><g transform="translate(0.434673, 32.823709)"><g><path d="M 7.703125 -11 L 7.703125 0 L 5.203125 0 L 5.203125 -8.390625 L 1.921875 -6.625 L 1.921875 -8.90625 L 4.5625 -10.4375 C 5.207031 -10.8125 5.863281 -11 6.53125 -11 Z M 7.703125 -11 "/></g></g></g><g fill="#e4e2dd" fill-opacity="1"><g transform="translate(10.662115, 32.823709)"><g><path d="M 7.703125 -11 L 7.703125 0 L 5.203125 0 L 5.203125 -8.390625 L 1.921875 -6.625 L 1.921875 -8.90625 L 4.5625 -10.4375 C 5.207031 -10.8125 5.863281 -11 6.53125 -11 Z M 7.703125 -11 "/></g></g></g><g fill="#e4e2dd" fill-opacity="1"><g transform="translate(20.889557, 32.823709)"><g><path d="M 2.078125 -2.671875 C 2.503906 -2.671875 2.847656 -2.535156 3.109375 -2.265625 C 3.378906 -2.003906 3.515625 -1.660156 3.515625 -1.234375 C 3.515625 -0.804688 3.378906 -0.457031 3.109375 -0.1875 C 2.847656 0.0820312 2.503906 0.21875 2.078125 0.21875 C 1.648438 0.21875 1.300781 0.0820312 1.03125 -0.1875 C 0.757812 -0.457031 0.625 -0.804688 0.625 -1.234375 C 0.625 -1.660156 0.757812 -2.003906 1.03125 -2.265625 C 1.300781 -2.535156 1.648438 -2.671875 2.078125 -2.671875 Z M 2.078125 -2.671875 "/></g></g></g><g fill="#e4e2dd" fill-opacity="1"><g transform="translate(24.951867, 32.823709)"><g><path d="M 0 -5.734375 L 15.929688 -5.734375 L 15.929688 -6.371094 L 0 -6.371094 Z M 0 -5.734375 "/></g></g></g><g fill="#e4e2dd" fill-opacity="1"><g transform="translate(40.882468, 32.823709)"><g><path d="M 4.796875 -1.953125 L 9.1875 -1.953125 L 9.1875 0 L 0.9375 0 L 0.9375 -1.125 L 4.53125 -4.59375 C 5.050781 -5.09375 5.460938 -5.519531 5.765625 -5.875 C 6.078125 -6.238281 6.300781 -6.578125 6.4375 -6.890625 C 6.570312 -7.210938 6.640625 -7.550781 6.640625 -7.90625 C 6.640625 -8.363281 6.515625 -8.726562 6.265625 -9 C 6.023438 -9.269531 5.679688 -9.40625 5.234375 -9.40625 C 4.296875 -9.40625 3.769531 -8.78125 3.65625 -7.53125 L 3.640625 -7.375 L 1.125 -7.375 L 1.140625 -7.53125 C 1.265625 -8.738281 1.691406 -9.660156 2.421875 -10.296875 C 3.148438 -10.929688 4.160156 -11.25 5.453125 -11.25 C 6.691406 -11.25 7.640625 -10.957031 8.296875 -10.375 C 8.953125 -9.789062 9.28125 -9.007812 9.28125 -8.03125 C 9.28125 -7.582031 9.195312 -7.15625 9.03125 -6.75 C 8.863281 -6.34375 8.585938 -5.898438 8.203125 -5.421875 C 7.816406 -4.941406 7.273438 -4.367188 6.578125 -3.703125 Z M 4.796875 -1.953125 "/></g></g></g><g fill="#e4e2dd" fill-opacity="1"><g transform="translate(51.10991, 32.823709)"><g><path d="M 7.078125 -5.8125 C 8.617188 -5.476562 9.390625 -4.613281 9.390625 -3.21875 C 9.390625 -2.53125 9.203125 -1.925781 8.828125 -1.40625 C 8.460938 -0.882812 7.953125 -0.484375 7.296875 -0.203125 C 6.648438 0.078125 5.890625 0.21875 5.015625 0.21875 C 3.710938 0.21875 2.675781 -0.0820312 1.90625 -0.6875 C 1.144531 -1.289062 0.707031 -2.148438 0.59375 -3.265625 L 0.578125 -3.421875 L 3.078125 -3.421875 L 3.09375 -3.265625 C 3.175781 -2.785156 3.378906 -2.390625 3.703125 -2.078125 C 4.023438 -1.773438 4.445312 -1.625 4.96875 -1.625 C 5.5 -1.625 5.925781 -1.765625 6.25 -2.046875 C 6.582031 -2.328125 6.75 -2.691406 6.75 -3.140625 C 6.75 -3.648438 6.578125 -4.039062 6.234375 -4.3125 C 5.890625 -4.582031 5.390625 -4.726562 4.734375 -4.75 L 4.328125 -4.75 L 4.328125 -6.421875 L 4.734375 -6.4375 C 5.296875 -6.46875 5.726562 -6.625 6.03125 -6.90625 C 6.34375 -7.195312 6.5 -7.570312 6.5 -8.03125 C 6.5 -8.4375 6.375 -8.757812 6.125 -9 C 5.875 -9.25 5.53125 -9.375 5.09375 -9.375 C 4.644531 -9.375 4.289062 -9.222656 4.03125 -8.921875 C 3.78125 -8.617188 3.632812 -8.238281 3.59375 -7.78125 L 3.5625 -7.625 L 1.078125 -7.625 L 1.09375 -7.78125 C 1.164062 -8.414062 1.363281 -8.992188 1.6875 -9.515625 C 2.019531 -10.035156 2.488281 -10.445312 3.09375 -10.75 C 3.707031 -11.0625 4.460938 -11.21875 5.359375 -11.21875 C 6.191406 -11.21875 6.882812 -11.085938 7.4375 -10.828125 C 8 -10.566406 8.421875 -10.210938 8.703125 -9.765625 C 8.984375 -9.328125 9.125 -8.84375 9.125 -8.3125 C 9.125 -7.675781 8.953125 -7.144531 8.609375 -6.71875 C 8.273438 -6.289062 7.765625 -5.988281 7.078125 -5.8125 Z M 7.078125 -5.8125 "/></g></g></g><g fill="#e4e2dd" fill-opacity="1"><g transform="translate(61.337352, 32.823709)"><g><path d="M 2.078125 -2.671875 C 2.503906 -2.671875 2.847656 -2.535156 3.109375 -2.265625 C 3.378906 -2.003906 3.515625 -1.660156 3.515625 -1.234375 C 3.515625 -0.804688 3.378906 -0.457031 3.109375 -0.1875 C 2.847656 0.0820312 2.503906 0.21875 2.078125 0.21875 C 1.648438 0.21875 1.300781 0.0820312 1.03125 -0.1875 C 0.757812 -0.457031 0.625 -0.804688 0.625 -1.234375 C 0.625 -1.660156 0.757812 -2.003906 1.03125 -2.265625 C 1.300781 -2.535156 1.648438 -2.671875 2.078125 -2.671875 Z M 2.078125 -2.671875 "/></g></g></g><g fill="#e4e2dd" fill-opacity="1"><g transform="translate(0.434673, 48.754189)"><g><path d="M 13.53125 -11 L 13.53125 0 L 11.03125 0 L 11.03125 -4.875 C 11.03125 -5.40625 11.03125 -6.003906 11.03125 -6.671875 C 11.039062 -7.347656 11.050781 -7.96875 11.0625 -8.53125 C 10.957031 -7.96875 10.816406 -7.351562 10.640625 -6.6875 C 10.472656 -6.019531 10.3125 -5.421875 10.15625 -4.890625 L 8.765625 0 L 6.125 0 L 4.703125 -4.890625 C 4.554688 -5.421875 4.398438 -6.015625 4.234375 -6.671875 C 4.066406 -7.335938 3.929688 -7.953125 3.828125 -8.515625 C 3.847656 -7.953125 3.859375 -7.335938 3.859375 -6.671875 C 3.859375 -6.003906 3.859375 -5.40625 3.859375 -4.875 L 3.859375 0 L 1.359375 0 L 1.359375 -11 L 5.28125 -11 L 7.484375 -2.375 L 9.703125 -11 Z M 13.53125 -11 "/></g></g></g><g fill="#e4e2dd" fill-opacity="1"><g transform="translate(14.915587, 48.754189)"><g><path d="M 7.421875 -3.109375 L 3.84375 -3.109375 L 2.828125 0 L 0.15625 0 L 4.125 -11 L 7.21875 -11 L 11.140625 0 L 8.4375 0 Z M 5.640625 -8.828125 L 4.46875 -5.0625 L 6.8125 -5.0625 Z M 5.640625 -8.828125 "/></g></g></g><g fill="#e4e2dd" fill-opacity="1"><g transform="translate(25.907697, 48.754189)"><g><path d="M 9.59375 -2.71875 C 9.664062 -2.070312 9.765625 -1.535156 9.890625 -1.109375 C 10.015625 -0.691406 10.1875 -0.320312 10.40625 0 L 7.6875 0 C 7.539062 -0.382812 7.425781 -0.753906 7.34375 -1.109375 C 7.269531 -1.472656 7.207031 -1.882812 7.15625 -2.34375 C 7.082031 -2.9375 6.925781 -3.398438 6.6875 -3.734375 C 6.457031 -4.078125 6.132812 -4.265625 5.71875 -4.296875 C 5.570312 -4.304688 5.425781 -4.3125 5.28125 -4.3125 C 5.132812 -4.3125 4.988281 -4.3125 4.84375 -4.3125 L 3.859375 -4.3125 L 3.859375 0 L 1.359375 0 L 1.359375 -11 L 5.53125 -11 C 5.863281 -11 6.148438 -10.992188 6.390625 -10.984375 C 6.628906 -10.972656 6.894531 -10.953125 7.1875 -10.921875 C 7.71875 -10.859375 8.203125 -10.71875 8.640625 -10.5 C 9.085938 -10.289062 9.441406 -9.984375 9.703125 -9.578125 C 9.972656 -9.171875 10.109375 -8.644531 10.109375 -8 C 10.109375 -7.300781 9.914062 -6.722656 9.53125 -6.265625 C 9.144531 -5.816406 8.609375 -5.492188 7.921875 -5.296875 C 8.484375 -5.085938 8.882812 -4.765625 9.125 -4.328125 C 9.375 -3.898438 9.53125 -3.363281 9.59375 -2.71875 Z M 3.859375 -6.15625 L 5.140625 -6.15625 C 5.328125 -6.15625 5.488281 -6.15625 5.625 -6.15625 C 5.757812 -6.15625 5.882812 -6.160156 6 -6.171875 C 6.394531 -6.210938 6.738281 -6.335938 7.03125 -6.546875 C 7.332031 -6.753906 7.484375 -7.109375 7.484375 -7.609375 C 7.484375 -8.097656 7.347656 -8.441406 7.078125 -8.640625 C 6.816406 -8.847656 6.488281 -8.972656 6.09375 -9.015625 C 5.976562 -9.023438 5.851562 -9.03125 5.71875 -9.03125 C 5.582031 -9.039062 5.425781 -9.046875 5.25 -9.046875 L 3.859375 -9.046875 Z M 3.859375 -6.15625 "/></g></g></g><g fill="#e4e2dd" fill-opacity="1"><g transform="translate(36.517463, 48.754189)"><g><path d="M 6.21875 -11.21875 C 7.238281 -11.21875 8.09375 -11.050781 8.78125 -10.71875 C 9.46875 -10.382812 10 -9.929688 10.375 -9.359375 C 10.757812 -8.785156 10.988281 -8.132812 11.0625 -7.40625 L 11.078125 -7.25 L 8.578125 -7.25 L 8.546875 -7.40625 C 8.273438 -8.71875 7.488281 -9.375 6.1875 -9.375 C 5.382812 -9.375 4.726562 -9.046875 4.21875 -8.390625 C 3.707031 -7.734375 3.453125 -6.796875 3.453125 -5.578125 C 3.453125 -4.660156 3.570312 -3.910156 3.8125 -3.328125 C 4.0625 -2.742188 4.390625 -2.3125 4.796875 -2.03125 C 5.210938 -1.757812 5.671875 -1.625 6.171875 -1.625 C 6.816406 -1.625 7.332031 -1.804688 7.71875 -2.171875 C 8.101562 -2.546875 8.363281 -3.0625 8.5 -3.71875 L 8.53125 -3.875 L 11.03125 -3.875 L 11.015625 -3.71875 C 10.890625 -2.46875 10.378906 -1.5 9.484375 -0.8125 C 8.597656 -0.125 7.460938 0.21875 6.078125 0.21875 C 5.078125 0.21875 4.179688 0 3.390625 -0.4375 C 2.597656 -0.875 1.972656 -1.515625 1.515625 -2.359375 C 1.054688 -3.210938 0.828125 -4.238281 0.828125 -5.4375 C 0.828125 -6.664062 1.066406 -7.707031 1.546875 -8.5625 C 2.023438 -9.425781 2.671875 -10.082031 3.484375 -10.53125 C 4.296875 -10.988281 5.207031 -11.21875 6.21875 -11.21875 Z M 6.21875 -11.21875 "/></g></g></g><g fill="#e4e2dd" fill-opacity="1"><g transform="translate(48.067138, 48.754189)"><g><path d="M 11.15625 -11 L 11.15625 0 L 8.671875 0 L 8.671875 -4.421875 L 3.859375 -4.421875 L 3.859375 0 L 1.359375 0 L 1.359375 -11 L 3.859375 -11 L 3.859375 -6.375 L 8.671875 -6.375 L 8.671875 -11 Z M 11.15625 -11 "/></g></g></g><g fill="#e4e2dd" fill-opacity="1"><g transform="translate(0.434673, 64.684668)"><g><path d="M 4.796875 -1.953125 L 9.1875 -1.953125 L 9.1875 0 L 0.9375 0 L 0.9375 -1.125 L 4.53125 -4.59375 C 5.050781 -5.09375 5.460938 -5.519531 5.765625 -5.875 C 6.078125 -6.238281 6.300781 -6.578125 6.4375 -6.890625 C 6.570312 -7.210938 6.640625 -7.550781 6.640625 -7.90625 C 6.640625 -8.363281 6.515625 -8.726562 6.265625 -9 C 6.023438 -9.269531 5.679688 -9.40625 5.234375 -9.40625 C 4.296875 -9.40625 3.769531 -8.78125 3.65625 -7.53125 L 3.640625 -7.375 L 1.125 -7.375 L 1.140625 -7.53125 C 1.265625 -8.738281 1.691406 -9.660156 2.421875 -10.296875 C 3.148438 -10.929688 4.160156 -11.25 5.453125 -11.25 C 6.691406 -11.25 7.640625 -10.957031 8.296875 -10.375 C 8.953125 -9.789062 9.28125 -9.007812 9.28125 -8.03125 C 9.28125 -7.582031 9.195312 -7.15625 9.03125 -6.75 C 8.863281 -6.34375 8.585938 -5.898438 8.203125 -5.421875 C 7.816406 -4.941406 7.273438 -4.367188 6.578125 -3.703125 Z M 4.796875 -1.953125 "/></g></g></g><g fill="#e4e2dd" fill-opacity="1"><g transform="translate(10.662115, 64.684668)"><g><path d="M 5.109375 -11.21875 C 6.160156 -11.21875 7.007812 -10.988281 7.65625 -10.53125 C 8.300781 -10.070312 8.769531 -9.414062 9.0625 -8.5625 C 9.363281 -7.707031 9.515625 -6.6875 9.515625 -5.5 C 9.515625 -4.320312 9.363281 -3.300781 9.0625 -2.4375 C 8.769531 -1.582031 8.300781 -0.925781 7.65625 -0.46875 C 7.007812 -0.0078125 6.160156 0.21875 5.109375 0.21875 C 4.054688 0.21875 3.207031 -0.0078125 2.5625 -0.46875 C 1.925781 -0.925781 1.457031 -1.582031 1.15625 -2.4375 C 0.863281 -3.300781 0.71875 -4.320312 0.71875 -5.5 C 0.71875 -6.6875 0.863281 -7.707031 1.15625 -8.5625 C 1.457031 -9.414062 1.925781 -10.070312 2.5625 -10.53125 C 3.207031 -10.988281 4.054688 -11.21875 5.109375 -11.21875 Z M 5.109375 -1.625 C 5.710938 -1.625 6.160156 -1.925781 6.453125 -2.53125 C 6.742188 -3.132812 6.890625 -4.125 6.890625 -5.5 C 6.890625 -6.894531 6.742188 -7.890625 6.453125 -8.484375 C 6.160156 -9.078125 5.710938 -9.375 5.109375 -9.375 C 4.515625 -9.375 4.070312 -9.078125 3.78125 -8.484375 C 3.488281 -7.890625 3.34375 -6.894531 3.34375 -5.5 C 3.34375 -4.125 3.488281 -3.132812 3.78125 -2.53125 C 4.070312 -1.925781 4.515625 -1.625 5.109375 -1.625 Z M 5.109375 -1.625 "/></g></g></g><g fill="#e4e2dd" fill-opacity="1"><g transform="translate(20.889557, 64.684668)"><g><path d="M 7.078125 -5.8125 C 8.617188 -5.476562 9.390625 -4.613281 9.390625 -3.21875 C 9.390625 -2.53125 9.203125 -1.925781 8.828125 -1.40625 C 8.460938 -0.882812 7.953125 -0.484375 7.296875 -0.203125 C 6.648438 0.078125 5.890625 0.21875 5.015625 0.21875 C 3.710938 0.21875 2.675781 -0.0820312 1.90625 -0.6875 C 1.144531 -1.289062 0.707031 -2.148438 0.59375 -3.265625 L 0.578125 -3.421875 L 3.078125 -3.421875 L 3.09375 -3.265625 C 3.175781 -2.785156 3.378906 -2.390625 3.703125 -2.078125 C 4.023438 -1.773438 4.445312 -1.625 4.96875 -1.625 C 5.5 -1.625 5.925781 -1.765625 6.25 -2.046875 C 6.582031 -2.328125 6.75 -2.691406 6.75 -3.140625 C 6.75 -3.648438 6.578125 -4.039062 6.234375 -4.3125 C 5.890625 -4.582031 5.390625 -4.726562 4.734375 -4.75 L 4.328125 -4.75 L 4.328125 -6.421875 L 4.734375 -6.4375 C 5.296875 -6.46875 5.726562 -6.625 6.03125 -6.90625 C 6.34375 -7.195312 6.5 -7.570312 6.5 -8.03125 C 6.5 -8.4375 6.375 -8.757812 6.125 -9 C 5.875 -9.25 5.53125 -9.375 5.09375 -9.375 C 4.644531 -9.375 4.289062 -9.222656 4.03125 -8.921875 C 3.78125 -8.617188 3.632812 -8.238281 3.59375 -7.78125 L 3.5625 -7.625 L 1.078125 -7.625 L 1.09375 -7.78125 C 1.164062 -8.414062 1.363281 -8.992188 1.6875 -9.515625 C 2.019531 -10.035156 2.488281 -10.445312 3.09375 -10.75 C 3.707031 -11.0625 4.460938 -11.21875 5.359375 -11.21875 C 6.191406 -11.21875 6.882812 -11.085938 7.4375 -10.828125 C 8 -10.566406 8.421875 -10.210938 8.703125 -9.765625 C 8.984375 -9.328125 9.125 -8.84375 9.125 -8.3125 C 9.125 -7.675781 8.953125 -7.144531 8.609375 -6.71875 C 8.273438 -6.289062 7.765625 -5.988281 7.078125 -5.8125 Z M 7.078125 -5.8125 "/></g></g></g><g fill="#e4e2dd" fill-opacity="1"><g transform="translate(31.116999, 64.684668)"><g><path d="M 5.109375 -11.21875 C 6.160156 -11.21875 7.007812 -10.988281 7.65625 -10.53125 C 8.300781 -10.070312 8.769531 -9.414062 9.0625 -8.5625 C 9.363281 -7.707031 9.515625 -6.6875 9.515625 -5.5 C 9.515625 -4.320312 9.363281 -3.300781 9.0625 -2.4375 C 8.769531 -1.582031 8.300781 -0.925781 7.65625 -0.46875 C 7.007812 -0.0078125 6.160156 0.21875 5.109375 0.21875 C 4.054688 0.21875 3.207031 -0.0078125 2.5625 -0.46875 C 1.925781 -0.925781 1.457031 -1.582031 1.15625 -2.4375 C 0.863281 -3.300781 0.71875 -4.320312 0.71875 -5.5 C 0.71875 -6.6875 0.863281 -7.707031 1.15625 -8.5625 C 1.457031 -9.414062 1.925781 -10.070312 2.5625 -10.53125 C 3.207031 -10.988281 4.054688 -11.21875 5.109375 -11.21875 Z M 5.109375 -1.625 C 5.710938 -1.625 6.160156 -1.925781 6.453125 -2.53125 C 6.742188 -3.132812 6.890625 -4.125 6.890625 -5.5 C 6.890625 -6.894531 6.742188 -7.890625 6.453125 -8.484375 C 6.160156 -9.078125 5.710938 -9.375 5.109375 -9.375 C 4.515625 -9.375 4.070312 -9.078125 3.78125 -8.484375 C 3.488281 -7.890625 3.34375 -6.894531 3.34375 -5.5 C 3.34375 -4.125 3.488281 -3.132812 3.78125 -2.53125 C 4.070312 -1.925781 4.515625 -1.625 5.109375 -1.625 Z M 5.109375 -1.625 "/></g></g></g></g></g></g></g></svg>